<svg width="15" height="15" viewBox="0 0 15 15" fill="none" xmlns="http://www.w3.org/2000/svg">
<g clip-path="url(#clip0_159_11)">
<path fill-rule="evenodd" clip-rule="evenodd" d="M7.49994 1.35009C9.50282 1.35009 9.74006 1.35771 10.531 1.39379C11.2624 1.42717 11.6595 1.54936 11.9239 1.65205C12.274 1.78812 12.5238 1.95068 12.7863 2.21314C13.0488 2.4756 13.2114 2.72549 13.3474 3.07557C13.4501 3.3399 13.5723 3.73706 13.6057 4.46833C13.6418 5.25928 13.6494 5.49649 13.6494 7.49926C13.6494 9.50202 13.6418 9.73923 13.6057 10.5301C13.5723 11.2614 13.4501 11.6586 13.3474 11.9229C13.2114 12.273 13.0488 12.5229 12.7863 12.7854C12.5238 13.0478 12.274 13.2104 11.9239 13.3464C11.6595 13.4491 11.2624 13.5713 10.531 13.6047C9.74018 13.6408 9.50294 13.6484 7.49994 13.6484C5.49695 13.6484 5.25969 13.6408 4.46886 13.6047C3.73751 13.5713 3.34032 13.4491 3.076 13.3464C2.72587 13.2104 2.47593 13.0478 2.21346 12.7854C1.95098 12.5229 1.78851 12.273 1.65247 11.9229C1.54973 11.6586 1.42756 11.2615 1.39417 10.5302C1.35809 9.73923 1.35046 9.50202 1.35046 7.49926C1.35046 5.49649 1.35809 5.25928 1.39417 4.46836C1.42756 3.73706 1.54973 3.3399 1.65247 3.07557C1.78851 2.72549 1.95098 2.4756 2.21346 2.21314C2.47593 1.95068 2.72587 1.78812 3.076 1.65205C3.34032 1.54936 3.73754 1.42717 4.46886 1.39379C5.25984 1.35771 5.49706 1.35009 7.49994 1.35009ZM7.97338 -0.0012207C8.04657 -0.00115517 8.11703 -0.00106926 8.18487 -0.000966787L8.73006 0.000510216C9.69885 0.00464975 9.99256 0.0163489 10.5926 0.043726C11.391 0.0801692 11.9362 0.206946 12.4133 0.392377C12.9066 0.584062 13.325 0.840536 13.742 1.25752C14.159 1.6745 14.4155 2.09279 14.6072 2.58603C14.7926 3.06315 14.9194 3.60837 14.9559 4.40676C14.9635 4.57343 14.9699 4.71646 14.9752 4.85689L14.9812 5.0255C14.993 5.39395 14.9983 5.80169 15.0002 6.61842V8.38009C14.9985 9.13399 14.9938 9.53941 14.9838 9.88712L14.9783 10.0575C14.9724 10.2258 14.965 10.3917 14.9559 10.5917C14.9194 11.3901 14.7926 11.9354 14.6072 12.4125C14.4155 12.9057 14.159 13.324 13.742 13.741C13.325 14.158 12.9066 14.4144 12.4133 14.6061C11.9362 14.7916 11.391 14.9183 10.5926 14.9548C10.4259 14.9624 10.2828 14.9688 10.1424 14.9741L9.97381 14.9801C9.60533 14.9919 9.19757 14.9972 8.38079 14.9991H6.61909C5.36252 14.9962 5.07401 14.9852 4.40729 14.9548C3.60886 14.9183 3.06357 14.7916 2.58642 14.6061C2.09316 14.4144 1.67487 14.158 1.25787 13.741C0.840864 13.324 0.5844 12.9057 0.3927 12.4125C0.207263 11.9354 0.0804393 11.3901 0.0439987 10.5917C0.0348675 10.3917 0.027512 10.2258 0.0215683 10.0575L0.0160751 9.88712C0.00771263 9.59736 0.00303693 9.26753 0.000740051 8.72934L-0.00063324 8.18418C-0.000736365 8.11635 -0.000910937 8.04593 -0.000976562 7.97275V7.02576C-0.000910937 6.95258 -0.000736365 6.88216 -0.00063324 6.81432L0.000740051 6.26916C0.00487443 5.30043 0.0166143 5.00676 0.0439987 4.40676C0.0804393 3.60837 0.207263 3.06315 0.3927 2.58603C0.5844 2.09279 0.840864 1.6745 1.25787 1.25752C1.67487 0.840536 2.09316 0.584062 2.58642 0.392377C3.06357 0.206946 3.60886 0.0801692 4.40729 0.043726C5.00733 0.0163489 5.30092 0.00464975 6.2697 0.000510216L6.8149 -0.000966787C6.88273 -0.00106926 6.95319 -0.00115517 7.02638 -0.0012207H7.97338ZM7.51482 3.65962C5.38592 3.65962 3.6601 5.38535 3.6601 7.51412C3.6601 9.64289 5.38592 11.3686 7.51482 11.3686C9.6437 11.3686 11.3695 9.64289 11.3695 7.51412C11.3695 5.38535 9.6437 3.65962 7.51482 3.65962ZM7.51482 5.01207C8.89671 5.01207 10.017 6.13229 10.017 7.51412C10.017 8.89595 8.89671 10.0162 7.51482 10.0162C6.13291 10.0162 5.01268 8.89595 5.01268 7.51412C5.01268 6.13229 6.13291 5.01207 7.51482 5.01207ZM11.4885 2.5881C10.9954 2.5881 10.5956 2.98786 10.5956 3.48102C10.5956 3.97418 10.9954 4.37397 11.4885 4.37397C11.9817 4.37397 12.3815 3.97418 12.3815 3.48102C12.3815 2.98786 11.9817 2.5881 11.4885 2.5881Z" fill="#EDDBBE"/>
</g>
<defs>
<clipPath id="clip0_159_11">
<rect width="15" height="15" fill="white"/>
</clipPath>
</defs>
</svg>
