<svg width="40" height="40" viewBox="0 0 40 40" fill="none" xmlns="http://www.w3.org/2000/svg">
<path fill-rule="evenodd" clip-rule="evenodd" d="M33.3786 20.2555C33.324 20.2009 33.2645 20.1551 33.2083 20.1021C33.2637 20.0491 33.324 20.0033 33.3786 19.9486L35.2571 18.0701C38.9273 14.3999 38.9273 8.44865 35.2571 4.77842C31.5869 1.1082 25.6356 1.1082 21.9654 4.77842L20.0869 6.65692C20.0596 6.68424 20.0371 6.71477 20.0098 6.74209C19.9824 6.71477 19.9599 6.68424 19.9326 6.65692L18.0541 4.77842C14.3839 1.1082 8.43266 1.1082 4.76243 4.77842C1.09221 8.44865 1.09221 14.3999 4.76243 18.0701L6.64093 19.9486C6.69557 20.0033 6.75502 20.0491 6.81127 20.1021C6.75583 20.1551 6.69557 20.2009 6.64093 20.2555L4.76243 22.134C1.09221 25.8043 1.09221 31.7555 4.76243 35.4257C8.43266 39.096 14.3839 39.096 18.0541 35.4257L19.9326 33.5472C19.9599 33.5199 19.9824 33.4894 20.0098 33.4621C20.0371 33.4894 20.0596 33.5199 20.0869 33.5472L21.9654 35.4257C25.6356 39.096 31.5869 39.096 35.2571 35.4257C38.9273 31.7555 38.9273 25.8043 35.2571 22.134L33.3786 20.2555ZM20.0098 25.2105C17.1888 25.2105 14.9013 22.9239 14.9013 20.1021C14.9013 17.2803 17.188 14.9937 20.0098 14.9937C22.8315 14.9937 25.1182 17.2803 25.1182 20.1021C25.1182 22.9239 22.8307 25.2105 20.0098 25.2105Z" fill="#526E3E"/>
</svg>
